<svg xmlns="http://www.w3.org/2000/svg" viewBox="0 0 32 32">
  <rect width="32" height="32" rx="7.5" fill="#141210"/>
  <path fill="#ff8c42" d="M8.5 4 L10.5 4 Q15 4 15 8.5 L15 15 L8.5 15 Q4 15 4 10.5 L4 8.5 Q4 4 8.5 4 Z"/>
  <path fill="#12b886" d="M21.5 4 L23.5 4 Q28 4 28 8.5 L28 10.5 Q28 15 23.5 15 L17 15 L17 8.5 Q17 4 21.5 4 Z"/>
  <path fill="#3a86ff" d="M8.5 17 L15 17 L15 23.5 Q15 28 10.5 28 L8.5 28 Q4 28 4 23.5 L4 21.5 Q4 17 8.5 17 Z"/>
  <path fill="#ff5da2" d="M17 17 L23.5 17 Q28 17 28 21.5 L28 23.5 Q28 28 23.5 28 L21.5 28 Q17 28 17 23.5 L17 17 Z"/>
</svg>
